<svg width="16" height="16" viewBox="0 0 16 16" fill="none" xmlns="http://www.w3.org/2000/svg">
<path d="M15.625 12.3333L15.625 3.66667C15.625 3.29848 15.3265 3 14.9583 3C14.5901 3 14.2917 3.29848 14.2917 3.66667L14.2917 12.3333C14.2917 12.7015 14.5901 13 14.9583 13C15.3265 13 15.625 12.7015 15.625 12.3333Z" fill="white"/>
<path d="M6.95833 12.3333L6.95833 3.66667C6.95833 3.29848 6.65985 3 6.29166 3C5.92347 3 5.62499 3.29848 5.62499 3.66667L5.62499 12.3333C5.62499 12.7015 5.92347 13 6.29166 13C6.65985 13 6.95833 12.7015 6.95833 12.3333Z" fill="white"/>
<path d="M13.6056 10.5552C13.6121 10.5913 13.6153 10.6274 13.6153 10.6635C13.6218 10.6936 13.625 10.7297 13.625 10.7719C13.625 10.8441 13.6024 10.9103 13.5571 10.9705C13.5378 11.0005 13.5119 11.0306 13.4796 11.0607C13.4473 11.0848 13.4085 11.1059 13.3633 11.1239C13.2017 11.2082 13.0305 11.2383 12.8496 11.2142C12.7591 11.1901 12.6783 11.151 12.6072 11.0968C12.5943 11.0848 12.5846 11.0788 12.5782 11.0788C12.5717 11.0728 12.5652 11.0637 12.5588 11.0517C12.5523 11.0457 12.5458 11.0397 12.5394 11.0336C12.5329 11.0216 12.5232 11.0126 12.5103 11.0066C12.478 10.9765 12.4521 10.9494 12.4328 10.9253C12.4134 10.8952 12.394 10.8651 12.3746 10.835C12.3617 10.805 12.3455 10.7779 12.3261 10.7538C12.3132 10.7237 12.2971 10.6936 12.2777 10.6635C12.2647 10.6395 12.2518 10.6184 12.2389 10.6003C12.226 10.5763 12.2163 10.5522 12.2098 10.5281C12.184 10.474 12.1678 10.4258 12.1613 10.3837L11.9578 9.94135C11.5119 9.94135 11.066 9.94436 10.6202 9.95038C10.1807 9.95038 9.73809 9.94737 9.29221 9.94135L9.08865 10.3837C9.07573 10.4078 9.06603 10.4318 9.05957 10.4559C9.05957 10.48 9.05311 10.504 9.04019 10.5281C9.02726 10.5522 9.01434 10.5763 9.00141 10.6003C8.99495 10.6184 8.98526 10.6395 8.97233 10.6635C8.95295 10.6936 8.93356 10.7237 8.91418 10.7538C8.90125 10.7779 8.8851 10.805 8.86571 10.835C8.85279 10.8651 8.83663 10.8952 8.81725 10.9253C8.79786 10.9494 8.77201 10.9765 8.7397 11.0066C8.72678 11.0126 8.71708 11.0216 8.71062 11.0336C8.70416 11.0397 8.6977 11.0457 8.69124 11.0517C8.68477 11.0637 8.67831 11.0728 8.67185 11.0788C8.66539 11.0788 8.65569 11.0848 8.64277 11.0968C8.57169 11.151 8.49091 11.1901 8.40044 11.2142C8.21951 11.2383 8.04826 11.2082 7.88671 11.1239C7.84148 11.1059 7.80271 11.0848 7.7704 11.0607C7.73809 11.0306 7.71224 11.0005 7.69285 10.9705C7.64762 10.9103 7.625 10.8441 7.625 10.7719C7.625 10.7297 7.625 10.6936 7.625 10.6635C7.63146 10.6274 7.63792 10.5913 7.64439 10.5552C7.65731 10.501 7.67347 10.4469 7.69285 10.3927C7.71224 10.3385 7.72193 10.3115 7.72193 10.3115L9.73809 5.68952L9.79624 5.54509C9.80917 5.50898 9.82532 5.47588 9.84471 5.44579C9.8641 5.4157 9.88025 5.37959 9.89317 5.33746C9.92548 5.25922 9.96103 5.19001 9.9998 5.12983C10.0192 5.09372 10.0418 5.06062 10.0676 5.03053C10.0935 5.00044 10.1193 4.97035 10.1452 4.94026C10.184 4.89212 10.2389 4.853 10.31 4.82291C10.4004 4.79282 10.5038 4.77777 10.6202 4.77777C10.7429 4.77777 10.8496 4.79282 10.94 4.82291C11.0111 4.853 11.066 4.89212 11.1048 4.94026C11.15 4.99442 11.1985 5.05761 11.2502 5.12983C11.289 5.19001 11.3245 5.25922 11.3568 5.33746C11.3697 5.37959 11.3859 5.4157 11.4053 5.44579C11.4247 5.47588 11.4408 5.50898 11.4538 5.54509L11.5119 5.68952L13.5281 10.3115C13.5281 10.3115 13.5378 10.3385 13.5571 10.3927C13.5765 10.4469 13.5927 10.501 13.6056 10.5552ZM11.3084 8.34353C11.2244 8.169 11.1371 7.98846 11.0466 7.8019C10.9626 7.61533 10.8722 7.42576 10.7752 7.23318C10.7494 7.17902 10.7235 7.12485 10.6977 7.07069C10.6718 7.01051 10.646 6.95334 10.6202 6.89917C10.6008 6.95334 10.5782 7.01051 10.5523 7.07069C10.5265 7.12485 10.5006 7.17902 10.4748 7.23318C10.3778 7.42576 10.2841 7.61533 10.1937 7.8019C10.1097 7.98846 10.0256 8.169 9.94164 8.34353L9.76716 8.74073H11.4828L11.3084 8.34353Z" fill="white"/>
</svg>
